PathFileType	4	(X/Y/Z)	D:\TRACE\v60_Jaco2_6-2-23\JustBodyDRS_Motion2_6-v60.trc
DataRate	CameraRate	NumFrames	NumMarkers	Units	OrigDataRate	OrigDataStartFrame	OrigNumFrames
100.00	100.00	      13	9	mm	100.00	4214	      6741
Frame#	Time	front left toe			Front right toe			aft left toe			aft right toe			Arm			FL body			FR body			AL Body			AR Body			
		X1	Y1	Z1	X2	Y2	Z2	X3	Y3	Z3	X4	Y4	Z4	X5	Y5	Z5	X6	Y6	Z6	X7	Y7	Z7	X8	Y8	Z8	X9	Y9	Z9	

4214	42.130	-164.56023	83.55579	-350.02722	165.23346	15.03688	-306.21295	-274.36340	14.67021	288.86084	168.13057	88.83416	292.82071	-72.64233	1197.53625	-476.58218	-72.75150	564.00549	-461.75436	86.91213	557.22235	-451.36990	-131.10059	578.64453	483.25070	25.94874	565.57898	493.87885	
4215	42.140	-163.91736	95.34557	-347.88284	166.51857	15.71020	-305.81296	-273.11725	13.80135	289.21246	171.38712	100.00991	294.63495	-72.01138	1198.07837	-474.27402	-70.59194	564.27960	-460.62488	87.90919	557.81952	-450.65475	-129.12805	577.17694	484.24158	28.00734	564.23071	494.81097	
4216	42.150	-163.37904	106.17155	-345.01959	167.11427	16.30434	-305.63306	-273.03610	13.60494	289.76355	173.66664	110.47411	296.92563	-70.82262	1197.94788	-472.06641	-70.69794	564.86957	-459.83765	88.88518	558.25812	-449.83063	-127.24554	576.00732	485.30045	29.91488	563.32739	495.53079	
4217	42.160	-162.24718	115.90222	-341.89633	168.61049	17.24015	-305.31195	-271.22311	12.78925	290.17813	176.08817	119.97025	299.07211	-69.57077	1197.84973	-470.45251	-69.62674	565.19171	-458.86456	90.45961	558.94055	-449.18323	-124.92840	574.81274	486.30106	32.36969	562.49554	496.46042	
4218	42.170	-160.44624	124.39186	-338.63571	169.48059	17.82502	-304.95813	-270.62775	12.64351	290.42441	179.97890	128.58487	301.63654	-69.41840	1198.26587	-469.07291	-67.22032	565.03381	-457.35367	91.62608	559.78217	-448.48709	-122.38050	573.97192	487.36694	34.89273	561.78314	497.22195	
4219	42.180	-159.05724	131.85977	-335.41476	170.33522	18.55552	-304.61938	-269.28448	12.30689	291.08670	184.64870	136.11017	303.74664	-69.29329	1198.76782	-467.82712	-66.97667	566.09680	-456.87396	93.25060	560.10547	-447.61139	-120.11263	573.14703	488.46249	37.50082	561.14093	498.34363	
4220	42.190	-157.90314	137.43613	-332.11038	171.40575	19.31636	-304.05807	-267.60919	11.61368	291.29285	189.92751	142.54836	305.80161	-69.20357	1199.06641	-466.45676	-65.26496	565.96863	-455.90668	94.62590	560.47186	-446.83823	-117.18840	572.44434	489.51068	40.06245	560.46136	498.84909	
4221	42.200	-157.18010	141.10396	-328.83716	172.39758	20.28857	-303.80423	-267.16989	11.17781	291.77463	194.48672	147.54111	307.64151	-69.01392	1198.95935	-464.93912	-62.23474	565.80640	-454.68774	96.50079	560.81085	-446.12424	-114.60945	571.47217	490.26025	42.57475	560.01868	499.70569	
4222	42.210	-155.71349	142.30042	-325.41135	173.51859	20.91565	-303.35721	-265.85666	10.63816	292.25732	199.81755	149.36765	309.75845	-68.47656	1198.75720	-463.31207	-61.25987	566.07898	-454.21112	98.56603	561.13690	-445.26837	-111.85938	570.60083	491.44641	45.61219	559.39056	500.45978	
4223	42.220	-153.68633	140.46466	-321.87524	174.52898	21.46317	-303.18359	-264.54083	10.06969	292.61273	205.31100	147.43614	312.40704	-67.95293	1198.68945	-461.80536	-59.13219	566.19885	-453.54880	100.55454	561.75555	-444.70294	-109.14444	569.62769	491.96786	48.23622	559.06323	500.99759	
4224	42.230	-149.81288	136.76411	-318.88666	175.63434	21.89632	-302.78690	-263.66547	9.72070	293.08258	211.19035	143.87419	314.97699	-67.17516	1198.96545	-460.68573	-56.11837	566.18622	-452.39935	103.18243	562.63354	-444.37643	-106.24851	569.04791	493.28851	51.22971	558.35931	501.61038	
4225	42.240	-145.76338	131.87598	-316.43604	176.50188	22.38716	-302.48984	-262.69629	9.37534	293.32410	216.95064	139.48727	317.51688	-66.88725	1199.23364	-459.54648	-55.00419	566.79663	-452.03424	105.62816	563.34619	-443.54440	-103.44543	567.72913	493.74170	54.37164	557.85077	502.33063	
4226	42.250	-140.78564	125.83414	-314.27072	177.76199	23.01461	-302.21439	-261.74536	9.05933	293.77512	222.03329	133.99091	319.83170	-66.52512	1199.42981	-458.13046	-51.19555	566.60138	-450.84814	107.85381	563.98352	-443.05215	-100.34506	566.71088	494.26160	57.41415	557.19946	502.99323	
